<mxfile host="Electron" modified="2023-12-18T06:39:38.483Z" agent="Mozilla/5.0 (Windows NT 10.0; Win64; x64) AppleWebKit/537.36 (KHTML, like Gecko) draw.io/21.2.1 Chrome/112.0.5615.87 Electron/24.1.2 Safari/537.36" etag="qg-36ULjIL-ymEUy8njh" version="21.2.1" type="device">
  <diagram name="第 1 页" id="tSkQpMwBd8tyNgjTVWzE">
    <mxGraphModel dx="2060" dy="1182" grid="1" gridSize="10" guides="1" tooltips="1" connect="1" arrows="1" fold="1" page="1" pageScale="1" pageWidth="827" pageHeight="1169" math="0" shadow="0">
      <root>
        <mxCell id="0" />
        <mxCell id="1" parent="0" />
        <mxCell id="Mwv3a4lvOvbAqnkbeFRy-76" style="edgeStyle=orthogonalEdgeStyle;rounded=0;orthogonalLoop=1;jettySize=auto;html=1;entryX=1;entryY=0.5;entryDx=0;entryDy=0;" parent="1" source="Mwv3a4lvOvbAqnkbeFRy-16" target="Mwv3a4lvOvbAqnkbeFRy-17" edge="1">
          <mxGeometry relative="1" as="geometry">
            <Array as="points">
              <mxPoint x="640" y="380" />
            </Array>
          </mxGeometry>
        </mxCell>
        <mxCell id="Mwv3a4lvOvbAqnkbeFRy-78" value="git push" style="edgeLabel;html=1;align=center;verticalAlign=middle;resizable=0;points=[];" parent="Mwv3a4lvOvbAqnkbeFRy-76" vertex="1" connectable="0">
          <mxGeometry x="0.8051" y="1" relative="1" as="geometry">
            <mxPoint x="15" y="-11" as="offset" />
          </mxGeometry>
        </mxCell>
        <mxCell id="Mwv3a4lvOvbAqnkbeFRy-77" style="edgeStyle=orthogonalEdgeStyle;rounded=0;orthogonalLoop=1;jettySize=auto;html=1;entryX=0;entryY=0.5;entryDx=0;entryDy=0;" parent="1" source="Mwv3a4lvOvbAqnkbeFRy-16" target="Mwv3a4lvOvbAqnkbeFRy-20" edge="1">
          <mxGeometry relative="1" as="geometry">
            <Array as="points">
              <mxPoint x="640" y="380" />
            </Array>
          </mxGeometry>
        </mxCell>
        <mxCell id="Mwv3a4lvOvbAqnkbeFRy-79" value="git push" style="edgeLabel;html=1;align=center;verticalAlign=middle;resizable=0;points=[];" parent="Mwv3a4lvOvbAqnkbeFRy-77" vertex="1" connectable="0">
          <mxGeometry x="0.6026" y="-1" relative="1" as="geometry">
            <mxPoint x="12" y="-11" as="offset" />
          </mxGeometry>
        </mxCell>
        <mxCell id="Mwv3a4lvOvbAqnkbeFRy-16" value="代码" style="rounded=1;whiteSpace=wrap;html=1;" parent="1" vertex="1">
          <mxGeometry x="580" y="160" width="120" height="40" as="geometry" />
        </mxCell>
        <mxCell id="Mwv3a4lvOvbAqnkbeFRy-18" value="git 分支" style="swimlane;horizontal=0;whiteSpace=wrap;html=1;" parent="1" vertex="1">
          <mxGeometry x="320" y="280" width="1040" height="200" as="geometry" />
        </mxCell>
        <mxCell id="Mwv3a4lvOvbAqnkbeFRy-17" value="test" style="rounded=0;whiteSpace=wrap;html=1;" parent="Mwv3a4lvOvbAqnkbeFRy-18" vertex="1">
          <mxGeometry x="120" y="80" width="120" height="40" as="geometry" />
        </mxCell>
        <mxCell id="Mwv3a4lvOvbAqnkbeFRy-20" value="prod" style="rounded=0;whiteSpace=wrap;html=1;" parent="Mwv3a4lvOvbAqnkbeFRy-18" vertex="1">
          <mxGeometry x="400" y="80" width="120" height="40" as="geometry" />
        </mxCell>
        <mxCell id="Mwv3a4lvOvbAqnkbeFRy-24" value="线上环境" style="swimlane;horizontal=0;whiteSpace=wrap;html=1;" parent="1" vertex="1">
          <mxGeometry x="320" y="880" width="1040" height="200" as="geometry">
            <mxRectangle x="320" y="880" width="40" height="80" as="alternateBounds" />
          </mxGeometry>
        </mxCell>
        <mxCell id="Mwv3a4lvOvbAqnkbeFRy-32" value="test" style="rounded=1;whiteSpace=wrap;html=1;" parent="Mwv3a4lvOvbAqnkbeFRy-24" vertex="1">
          <mxGeometry x="120" y="80" width="120" height="40" as="geometry" />
        </mxCell>
        <mxCell id="Mwv3a4lvOvbAqnkbeFRy-34" value="pre" style="rounded=1;whiteSpace=wrap;html=1;" parent="Mwv3a4lvOvbAqnkbeFRy-24" vertex="1">
          <mxGeometry x="400" y="80" width="120" height="40" as="geometry" />
        </mxCell>
        <mxCell id="Mwv3a4lvOvbAqnkbeFRy-33" value="prod" style="rounded=1;whiteSpace=wrap;html=1;" parent="Mwv3a4lvOvbAqnkbeFRy-24" vertex="1">
          <mxGeometry x="640" y="80" width="120" height="40" as="geometry" />
        </mxCell>
        <mxCell id="Mwv3a4lvOvbAqnkbeFRy-46" style="edgeStyle=orthogonalEdgeStyle;rounded=0;orthogonalLoop=1;jettySize=auto;html=1;entryX=0.5;entryY=0;entryDx=0;entryDy=0;" parent="1" source="Mwv3a4lvOvbAqnkbeFRy-17" target="Mwv3a4lvOvbAqnkbeFRy-81" edge="1">
          <mxGeometry relative="1" as="geometry">
            <mxPoint x="500" y="620" as="targetPoint" />
          </mxGeometry>
        </mxCell>
        <mxCell id="Mwv3a4lvOvbAqnkbeFRy-53" value="自动 build:test" style="edgeLabel;html=1;align=center;verticalAlign=middle;resizable=0;points=[];" parent="Mwv3a4lvOvbAqnkbeFRy-46" vertex="1" connectable="0">
          <mxGeometry x="0.3458" y="4" relative="1" as="geometry">
            <mxPoint x="-4" y="-41" as="offset" />
          </mxGeometry>
        </mxCell>
        <mxCell id="Mwv3a4lvOvbAqnkbeFRy-50" style="edgeStyle=orthogonalEdgeStyle;rounded=0;orthogonalLoop=1;jettySize=auto;html=1;entryX=0.5;entryY=0;entryDx=0;entryDy=0;" parent="1" source="Mwv3a4lvOvbAqnkbeFRy-48" target="Mwv3a4lvOvbAqnkbeFRy-34" edge="1">
          <mxGeometry relative="1" as="geometry" />
        </mxCell>
        <mxCell id="Mwv3a4lvOvbAqnkbeFRy-56" value="自动部署" style="edgeLabel;html=1;align=center;verticalAlign=middle;resizable=0;points=[];" parent="Mwv3a4lvOvbAqnkbeFRy-50" vertex="1" connectable="0">
          <mxGeometry x="-0.2033" y="-1" relative="1" as="geometry">
            <mxPoint x="1" y="16" as="offset" />
          </mxGeometry>
        </mxCell>
        <mxCell id="Mwv3a4lvOvbAqnkbeFRy-49" style="edgeStyle=orthogonalEdgeStyle;rounded=0;orthogonalLoop=1;jettySize=auto;html=1;entryX=0.5;entryY=0;entryDx=0;entryDy=0;" parent="1" source="Mwv3a4lvOvbAqnkbeFRy-20" target="Mwv3a4lvOvbAqnkbeFRy-48" edge="1">
          <mxGeometry relative="1" as="geometry" />
        </mxCell>
        <mxCell id="Mwv3a4lvOvbAqnkbeFRy-54" value="自动 build:prod" style="edgeLabel;html=1;align=center;verticalAlign=middle;resizable=0;points=[];" parent="Mwv3a4lvOvbAqnkbeFRy-49" vertex="1" connectable="0">
          <mxGeometry x="0.3333" relative="1" as="geometry">
            <mxPoint y="-27" as="offset" />
          </mxGeometry>
        </mxCell>
        <mxCell id="Mwv3a4lvOvbAqnkbeFRy-65" style="edgeStyle=orthogonalEdgeStyle;rounded=0;orthogonalLoop=1;jettySize=auto;html=1;entryX=0.5;entryY=0;entryDx=0;entryDy=0;" parent="1" source="Mwv3a4lvOvbAqnkbeFRy-58" target="Mwv3a4lvOvbAqnkbeFRy-64" edge="1">
          <mxGeometry relative="1" as="geometry" />
        </mxCell>
        <mxCell id="Mwv3a4lvOvbAqnkbeFRy-66" style="edgeStyle=orthogonalEdgeStyle;rounded=0;orthogonalLoop=1;jettySize=auto;html=1;entryX=0.5;entryY=0;entryDx=0;entryDy=0;" parent="1" source="Mwv3a4lvOvbAqnkbeFRy-64" target="Mwv3a4lvOvbAqnkbeFRy-33" edge="1">
          <mxGeometry relative="1" as="geometry" />
        </mxCell>
        <mxCell id="Mwv3a4lvOvbAqnkbeFRy-84" style="edgeStyle=orthogonalEdgeStyle;rounded=0;orthogonalLoop=1;jettySize=auto;html=1;entryX=0;entryY=0.5;entryDx=0;entryDy=0;" parent="1" source="Mwv3a4lvOvbAqnkbeFRy-64" target="Mwv3a4lvOvbAqnkbeFRy-68" edge="1">
          <mxGeometry relative="1" as="geometry">
            <Array as="points">
              <mxPoint x="1140" y="820" />
              <mxPoint x="1140" y="660" />
            </Array>
          </mxGeometry>
        </mxCell>
        <mxCell id="Mwv3a4lvOvbAqnkbeFRy-94" value="自动备份" style="edgeLabel;html=1;align=center;verticalAlign=middle;resizable=0;points=[];" parent="Mwv3a4lvOvbAqnkbeFRy-84" vertex="1" connectable="0">
          <mxGeometry x="-0.6513" y="-2" relative="1" as="geometry">
            <mxPoint x="-5" y="-2" as="offset" />
          </mxGeometry>
        </mxCell>
        <mxCell id="Mwv3a4lvOvbAqnkbeFRy-88" style="edgeStyle=orthogonalEdgeStyle;rounded=0;orthogonalLoop=1;jettySize=auto;html=1;entryX=1;entryY=0.5;entryDx=0;entryDy=0;" parent="1" source="Mwv3a4lvOvbAqnkbeFRy-64" target="Mwv3a4lvOvbAqnkbeFRy-16" edge="1">
          <mxGeometry relative="1" as="geometry">
            <Array as="points">
              <mxPoint x="900" y="820" />
              <mxPoint x="900" y="180" />
            </Array>
          </mxGeometry>
        </mxCell>
        <mxCell id="Mwv3a4lvOvbAqnkbeFRy-89" value="自动 git tag" style="edgeLabel;html=1;align=center;verticalAlign=middle;resizable=0;points=[];" parent="Mwv3a4lvOvbAqnkbeFRy-88" vertex="1" connectable="0">
          <mxGeometry x="-0.8768" y="2" relative="1" as="geometry">
            <mxPoint x="17" y="-2" as="offset" />
          </mxGeometry>
        </mxCell>
        <mxCell id="Mwv3a4lvOvbAqnkbeFRy-64" value="&lt;font style=&quot;&quot;&gt;&lt;font style=&quot;font-size: 12px;&quot;&gt;手动部署&lt;/font&gt;&lt;br&gt;&lt;/font&gt;" style="rhombus;whiteSpace=wrap;html=1;" parent="1" vertex="1">
          <mxGeometry x="980" y="780" width="80" height="80" as="geometry" />
        </mxCell>
        <mxCell id="Mwv3a4lvOvbAqnkbeFRy-73" value="包" style="swimlane;horizontal=0;whiteSpace=wrap;html=1;" parent="1" vertex="1">
          <mxGeometry x="320" y="560" width="1040" height="200" as="geometry" />
        </mxCell>
        <mxCell id="Mwv3a4lvOvbAqnkbeFRy-48" value="包" style="rhombus;whiteSpace=wrap;html=1;" parent="Mwv3a4lvOvbAqnkbeFRy-73" vertex="1">
          <mxGeometry x="420" y="60" width="80" height="80" as="geometry" />
        </mxCell>
        <mxCell id="Mwv3a4lvOvbAqnkbeFRy-58" value="HEAD" style="rounded=0;whiteSpace=wrap;html=1;" parent="Mwv3a4lvOvbAqnkbeFRy-73" vertex="1">
          <mxGeometry x="640" y="80" width="120" height="40" as="geometry" />
        </mxCell>
        <mxCell id="Mwv3a4lvOvbAqnkbeFRy-60" style="edgeStyle=orthogonalEdgeStyle;rounded=0;orthogonalLoop=1;jettySize=auto;html=1;entryX=0;entryY=0.5;entryDx=0;entryDy=0;" parent="Mwv3a4lvOvbAqnkbeFRy-73" source="Mwv3a4lvOvbAqnkbeFRy-48" target="Mwv3a4lvOvbAqnkbeFRy-58" edge="1">
          <mxGeometry relative="1" as="geometry" />
        </mxCell>
        <mxCell id="Mwv3a4lvOvbAqnkbeFRy-63" value="自动备份" style="edgeLabel;html=1;align=center;verticalAlign=middle;resizable=0;points=[];" parent="Mwv3a4lvOvbAqnkbeFRy-60" vertex="1" connectable="0">
          <mxGeometry x="-0.1977" y="3" relative="1" as="geometry">
            <mxPoint x="-16" y="-7" as="offset" />
          </mxGeometry>
        </mxCell>
        <mxCell id="Mwv3a4lvOvbAqnkbeFRy-68" value="历史版本" style="rounded=0;whiteSpace=wrap;html=1;" parent="Mwv3a4lvOvbAqnkbeFRy-73" vertex="1">
          <mxGeometry x="840" y="80" width="120" height="40" as="geometry" />
        </mxCell>
        <mxCell id="Mwv3a4lvOvbAqnkbeFRy-81" value="包" style="rounded=0;whiteSpace=wrap;html=1;" parent="Mwv3a4lvOvbAqnkbeFRy-73" vertex="1">
          <mxGeometry x="120" y="80" width="120" height="40" as="geometry" />
        </mxCell>
        <mxCell id="Mwv3a4lvOvbAqnkbeFRy-82" style="edgeStyle=orthogonalEdgeStyle;rounded=0;orthogonalLoop=1;jettySize=auto;html=1;entryX=0.5;entryY=0;entryDx=0;entryDy=0;" parent="1" source="Mwv3a4lvOvbAqnkbeFRy-81" target="Mwv3a4lvOvbAqnkbeFRy-32" edge="1">
          <mxGeometry relative="1" as="geometry" />
        </mxCell>
        <mxCell id="Mwv3a4lvOvbAqnkbeFRy-83" value="自动部署" style="edgeLabel;html=1;align=center;verticalAlign=middle;resizable=0;points=[];" parent="Mwv3a4lvOvbAqnkbeFRy-82" vertex="1" connectable="0">
          <mxGeometry x="0.0952" y="-3" relative="1" as="geometry">
            <mxPoint x="3" y="-13" as="offset" />
          </mxGeometry>
        </mxCell>
        <mxCell id="Mwv3a4lvOvbAqnkbeFRy-85" style="edgeStyle=orthogonalEdgeStyle;rounded=0;orthogonalLoop=1;jettySize=auto;html=1;entryX=1;entryY=0.5;entryDx=0;entryDy=0;" parent="1" source="Mwv3a4lvOvbAqnkbeFRy-68" target="Mwv3a4lvOvbAqnkbeFRy-33" edge="1">
          <mxGeometry relative="1" as="geometry">
            <Array as="points">
              <mxPoint x="1220" y="980" />
            </Array>
          </mxGeometry>
        </mxCell>
        <mxCell id="Mwv3a4lvOvbAqnkbeFRy-86" value="手动回滚" style="edgeLabel;html=1;align=center;verticalAlign=middle;resizable=0;points=[];" parent="Mwv3a4lvOvbAqnkbeFRy-85" vertex="1" connectable="0">
          <mxGeometry x="-0.3894" y="1" relative="1" as="geometry">
            <mxPoint x="-1" y="6" as="offset" />
          </mxGeometry>
        </mxCell>
        <mxCell id="N-fJFkYHjIZN_txi707G-4" value="1. 时间格式为 `YYYY-MM-DD HH:mm:ss`&lt;br&gt;&lt;br&gt;&lt;br&gt;2. HEAD 命名为 `时间-commit`&lt;br&gt;&lt;br&gt;&amp;nbsp; &amp;nbsp; 获取 commit 的命令 `git rev-parse HEAD`&lt;br&gt;&lt;br&gt;&lt;br&gt;3. git tag -a v版本号 -m &quot;备注&quot; commit&lt;br&gt;&lt;br&gt;&amp;nbsp; &amp;nbsp; 版本号为手动输入，需要符合 Semantic Versioning 2.0.0&lt;br&gt;&amp;nbsp; &amp;nbsp; 备注为手动输入，需要写明开发了什么功能或 bug&lt;br&gt;&amp;nbsp; &amp;nbsp; commit 为 HEAD 命名中获取&lt;br&gt;&lt;br&gt;&lt;br&gt;4. 历史版本 命名为 `v版本号-时间-commit`" style="text;html=1;strokeColor=none;fillColor=none;align=left;verticalAlign=top;whiteSpace=wrap;rounded=0;fontSize=24;" parent="1" vertex="1">
          <mxGeometry x="320" y="1160" width="1040" height="480" as="geometry" />
        </mxCell>
      </root>
    </mxGraphModel>
  </diagram>
</mxfile>
